<?xml version="1.0" encoding="UTF-8"?>
<svg version="1.1" xmlns="http://www.w3.org/2000/svg" width="1080" height="1080">
<path d="M0 0 C1.89748961 -0.00417605 3.79497672 -0.00965506 5.69245923 -0.01631981 C10.89147231 -0.03075743 16.09032665 -0.02653491 21.28934836 -0.019153 C26.90228493 -0.01441949 32.51518724 -0.02693282 38.12811279 -0.03717041 C49.11843153 -0.05436012 60.10869309 -0.05519805 71.09902178 -0.04995751 C80.03270667 -0.0459149 88.96637467 -0.04736045 97.90005875 -0.05270576 C99.80782864 -0.0538284 99.80782864 -0.0538284 101.75413934 -0.05497371 C104.33795523 -0.0565052 106.92177112 -0.05804355 109.505587 -0.05958868 C126.85174449 -0.06941621 144.19789212 -0.07358248 161.54405022 -0.06596279 C162.56097962 -0.06551703 162.56097962 -0.06551703 163.59845306 -0.06506227 C169.10351421 -0.06261346 174.60857528 -0.06000181 180.11363634 -0.05737813 C201.58434236 -0.04727671 223.05497017 -0.05563061 244.52566528 -0.07887268 C268.66289251 -0.10495916 292.80006117 -0.11773999 316.93730748 -0.11068493 C329.71209397 -0.1071922 342.48681625 -0.10942843 355.26159286 -0.12693596 C366.13644739 -0.14165495 377.01119247 -0.14229724 387.88604484 -0.12486505 C393.43284938 -0.11635029 398.97945838 -0.11421735 404.52625275 -0.1295166 C409.60787105 -0.14335912 414.6891262 -0.13860585 419.77072348 -0.11927737 C421.60507979 -0.11551575 423.43946516 -0.11844395 425.27379559 -0.12888902 C442.64890689 -0.22076004 456.10780858 3.37979375 469.16482544 15.57518005 C481.97139846 29.0702785 483.86603181 43.22762221 483.80250549 60.97285461 C483.80668155 62.87034423 483.81216055 64.76783134 483.8188253 66.66531384 C483.83326292 71.86432693 483.82904041 77.06318126 483.82165849 82.26220298 C483.81692498 87.87513954 483.82943831 93.48804185 483.8396759 99.10096741 C483.85686561 110.09128614 483.85770354 121.08154771 483.852463 132.07187639 C483.84842039 141.00556128 483.84986594 149.93922928 483.85521126 158.87291336 C483.85595968 160.14475996 483.8567081 161.41660655 483.8574792 162.72699396 C483.85901069 165.31080984 483.86054904 167.89462573 483.86209417 170.47844161 C483.87192171 187.8245991 483.87608797 205.17074674 483.86846828 222.51690483 C483.86802252 223.53383424 483.86802252 223.53383424 483.86756776 224.57130767 C483.86511895 230.07636882 483.8625073 235.58142989 483.85988363 241.08649095 C483.8497822 262.55719698 483.85813611 284.02782478 483.88137817 305.4985199 C483.90746465 329.63574713 483.92024548 353.77291579 483.91319042 377.91016209 C483.90969769 390.68494859 483.91193393 403.45967087 483.92944145 416.23444748 C483.94416045 427.10930201 483.94480273 437.98404709 483.92737054 448.85889946 C483.91885578 454.405704 483.91672284 459.952313 483.93202209 465.49910736 C483.94586462 470.58072566 483.94111135 475.66198082 483.92178286 480.74357809 C483.91802125 482.5779344 483.92094944 484.41231977 483.93139451 486.2466502 C484.02326553 503.6217615 480.42271174 517.0806632 468.22732544 530.13768005 C454.73222699 542.94425307 440.57488328 544.83888642 422.82965088 544.77536011 C420.93216127 544.77953616 419.03467416 544.78501517 417.13719165 544.79167992 C411.93817856 544.80611753 406.73932423 544.80189502 401.54030252 544.79451311 C395.92736595 544.78977959 390.31446364 544.80229292 384.70153809 544.81253052 C373.71121935 544.82972022 362.72095779 544.83055816 351.7306291 544.82531761 C342.79694421 544.821275 333.86327621 544.82272056 324.92959213 544.82806587 C323.02182224 544.82918851 323.02182224 544.82918851 321.07551154 544.83033382 C318.49169565 544.83186531 315.90787976 544.83340365 313.32406388 544.83494879 C295.97790639 544.84477632 278.63175876 544.84894259 261.28560066 544.8413229 C260.26867125 544.84087714 260.26867125 544.84087714 259.23119782 544.84042237 C253.72613667 544.83797357 248.2210756 544.83536192 242.71601454 544.83273824 C221.24530852 544.82263682 199.77468071 544.83099072 178.3039856 544.85423279 C154.16675837 544.88031927 130.02958971 544.8931001 105.8923434 544.88604504 C93.1175569 544.8825523 80.34283463 544.88478854 67.56805801 544.90229607 C56.69320349 544.91701506 45.81845841 544.91765734 34.94360603 544.90022516 C29.3968015 544.8917104 23.8501925 544.88957745 18.30339813 544.90487671 C13.22177983 544.91871923 8.14052467 544.91396596 3.0589274 544.89463747 C1.22457109 544.89087586 -0.60981428 544.89380405 -2.44414471 544.90424912 C-19.81925601 544.99612015 -33.2781577 541.39556636 -46.33517456 529.20018005 C-59.14174758 515.70508161 -61.03638093 501.54773789 -60.97285461 483.80250549 C-60.97703067 481.90501588 -60.98250968 480.00752877 -60.98917443 478.11004627 C-61.00361204 472.91103318 -60.99938953 467.71217885 -60.99200761 462.51315713 C-60.9872741 456.90022057 -60.99978743 451.28731826 -61.01002502 445.6743927 C-61.02721473 434.68407397 -61.02805266 423.6938124 -61.02281212 412.70348372 C-61.01876951 403.76979883 -61.02021507 394.83613083 -61.02556038 385.90244675 C-61.0263088 384.63060015 -61.02705722 383.35875355 -61.02782832 382.04836615 C-61.02935981 379.46455026 -61.03089816 376.88073438 -61.03244329 374.2969185 C-61.04227083 356.95076101 -61.04643709 339.60461337 -61.03881741 322.25845528 C-61.03852023 321.58050234 -61.03822306 320.9025494 -61.03791688 320.20405243 C-61.03546807 314.69899129 -61.03285642 309.19393022 -61.03023275 303.68886915 C-61.02013132 282.21816313 -61.02848523 260.74753533 -61.05172729 239.27684021 C-61.07781378 215.13961298 -61.0905946 191.00244432 -61.08353955 166.86519802 C-61.08004681 154.09041152 -61.08228305 141.31568924 -61.09979057 128.54091263 C-61.11450957 117.6660581 -61.11515185 106.79131302 -61.09771966 95.91646065 C-61.0892049 90.36965611 -61.08707196 84.82304711 -61.10237122 79.27625275 C-61.11621374 74.19463445 -61.11146047 69.11337929 -61.09213198 64.03178202 C-61.08837037 62.1974257 -61.09129856 60.36304033 -61.10174363 58.5287099 C-61.19361465 41.1535986 -57.59306086 27.69469691 -45.39767456 14.63768005 C-31.90257611 1.83110704 -17.7452324 -0.06352631 0 0 Z " fill="#F1EBCD" transform="translate(328.5851745605469,267.61231994628906)"/>
<path d="M0 0 C1.89748961 -0.00417605 3.79497672 -0.00965506 5.69245923 -0.01631981 C10.89147231 -0.03075743 16.09032665 -0.02653491 21.28934836 -0.019153 C26.90228493 -0.01441949 32.51518724 -0.02693282 38.12811279 -0.03717041 C49.11843153 -0.05436012 60.10869309 -0.05519805 71.09902178 -0.04995751 C80.03270667 -0.0459149 88.96637467 -0.04736045 97.90005875 -0.05270576 C99.80782864 -0.0538284 99.80782864 -0.0538284 101.75413934 -0.05497371 C104.33795523 -0.0565052 106.92177112 -0.05804355 109.505587 -0.05958868 C126.85174449 -0.06941621 144.19789212 -0.07358248 161.54405022 -0.06596279 C162.56097962 -0.06551703 162.56097962 -0.06551703 163.59845306 -0.06506227 C169.10351421 -0.06261346 174.60857528 -0.06000181 180.11363634 -0.05737813 C201.58434236 -0.04727671 223.05497017 -0.05563061 244.52566528 -0.07887268 C268.66289251 -0.10495916 292.80006117 -0.11773999 316.93730748 -0.11068493 C329.71209397 -0.1071922 342.48681625 -0.10942843 355.26159286 -0.12693596 C366.13644739 -0.14165495 377.01119247 -0.14229724 387.88604484 -0.12486505 C393.43284938 -0.11635029 398.97945838 -0.11421735 404.52625275 -0.1295166 C409.60787105 -0.14335912 414.6891262 -0.13860585 419.77072348 -0.11927737 C421.60507979 -0.11551575 423.43946516 -0.11844395 425.27379559 -0.12888902 C442.64890689 -0.22076004 456.10780858 3.37979375 469.16482544 15.57518005 C481.97139846 29.0702785 483.86603181 43.22762221 483.80250549 60.97285461 C483.80668155 62.87034423 483.81216055 64.76783134 483.8188253 66.66531384 C483.83326292 71.86432693 483.82904041 77.06318126 483.82165849 82.26220298 C483.81692498 87.87513954 483.82943831 93.48804185 483.8396759 99.10096741 C483.85686561 110.09128614 483.85770354 121.08154771 483.852463 132.07187639 C483.84842039 141.00556128 483.84986594 149.93922928 483.85521126 158.87291336 C483.85595968 160.14475996 483.8567081 161.41660655 483.8574792 162.72699396 C483.85901069 165.31080984 483.86054904 167.89462573 483.86209417 170.47844161 C483.87192171 187.8245991 483.87608797 205.17074674 483.86846828 222.51690483 C483.86802252 223.53383424 483.86802252 223.53383424 483.86756776 224.57130767 C483.86511895 230.07636882 483.8625073 235.58142989 483.85988363 241.08649095 C483.8497822 262.55719698 483.85813611 284.02782478 483.88137817 305.4985199 C483.90746465 329.63574713 483.92024548 353.77291579 483.91319042 377.91016209 C483.90969769 390.68494859 483.91193393 403.45967087 483.92944145 416.23444748 C483.94416045 427.10930201 483.94480273 437.98404709 483.92737054 448.85889946 C483.91885578 454.405704 483.91672284 459.952313 483.93202209 465.49910736 C483.94586462 470.58072566 483.94111135 475.66198082 483.92178286 480.74357809 C483.91802125 482.5779344 483.92094944 484.41231977 483.93139451 486.2466502 C484.02326553 503.6217615 480.42271174 517.0806632 468.22732544 530.13768005 C454.73222699 542.94425307 440.57488328 544.83888642 422.82965088 544.77536011 C420.93216127 544.77953616 419.03467416 544.78501517 417.13719165 544.79167992 C411.93817856 544.80611753 406.73932423 544.80189502 401.54030252 544.79451311 C395.92736595 544.78977959 390.31446364 544.80229292 384.70153809 544.81253052 C373.71121935 544.82972022 362.72095779 544.83055816 351.7306291 544.82531761 C342.79694421 544.821275 333.86327621 544.82272056 324.92959213 544.82806587 C323.02182224 544.82918851 323.02182224 544.82918851 321.07551154 544.83033382 C318.49169565 544.83186531 315.90787976 544.83340365 313.32406388 544.83494879 C295.97790639 544.84477632 278.63175876 544.84894259 261.28560066 544.8413229 C260.26867125 544.84087714 260.26867125 544.84087714 259.23119782 544.84042237 C253.72613667 544.83797357 248.2210756 544.83536192 242.71601454 544.83273824 C221.24530852 544.82263682 199.77468071 544.83099072 178.3039856 544.85423279 C154.16675837 544.88031927 130.02958971 544.8931001 105.8923434 544.88604504 C93.1175569 544.8825523 80.34283463 544.88478854 67.56805801 544.90229607 C56.69320349 544.91701506 45.81845841 544.91765734 34.94360603 544.90022516 C29.3968015 544.8917104 23.8501925 544.88957745 18.30339813 544.90487671 C13.22177983 544.91871923 8.14052467 544.91396596 3.0589274 544.89463747 C1.22457109 544.89087586 -0.60981428 544.89380405 -2.44414471 544.90424912 C-19.81925601 544.99612015 -33.2781577 541.39556636 -46.33517456 529.20018005 C-59.14174758 515.70508161 -61.03638093 501.54773789 -60.97285461 483.80250549 C-60.97703067 481.90501588 -60.98250968 480.00752877 -60.98917443 478.11004627 C-61.00361204 472.91103318 -60.99938953 467.71217885 -60.99200761 462.51315713 C-60.9872741 456.90022057 -60.99978743 451.28731826 -61.01002502 445.6743927 C-61.02721473 434.68407397 -61.02805266 423.6938124 -61.02281212 412.70348372 C-61.01876951 403.76979883 -61.02021507 394.83613083 -61.02556038 385.90244675 C-61.0263088 384.63060015 -61.02705722 383.35875355 -61.02782832 382.04836615 C-61.02935981 379.46455026 -61.03089816 376.88073438 -61.03244329 374.2969185 C-61.04227083 356.95076101 -61.04643709 339.60461337 -61.03881741 322.25845528 C-61.03852023 321.58050234 -61.03822306 320.9025494 -61.03791688 320.20405243 C-61.03546807 314.69899129 -61.03285642 309.19393022 -61.03023275 303.68886915 C-61.02013132 282.21816313 -61.02848523 260.74753533 -61.05172729 239.27684021 C-61.07781378 215.13961298 -61.0905946 191.00244432 -61.08353955 166.86519802 C-61.08004681 154.09041152 -61.08228305 141.31568924 -61.09979057 128.54091263 C-61.11450957 117.6660581 -61.11515185 106.79131302 -61.09771966 95.91646065 C-61.0892049 90.36965611 -61.08707196 84.82304711 -61.10237122 79.27625275 C-61.11621374 74.19463445 -61.11146047 69.11337929 -61.09213198 64.03178202 C-61.08837037 62.1974257 -61.09129856 60.36304033 -61.10174363 58.5287099 C-61.19361465 41.1535986 -57.59306086 27.69469691 -45.39767456 14.63768005 C-31.90257611 1.83110704 -17.7452324 -0.06352631 0 0 Z M-35.58517456 34.38768005 C-41.60451454 43.62928562 -41.29135706 53.23794848 -41.22009277 63.82736206 C-41.22585992 65.69684563 -41.23380501 67.56632352 -41.243729 69.43578964 C-41.26454414 74.55283788 -41.2543113 79.66941806 -41.2387979 84.78646767 C-41.22746644 90.3128313 -41.24495609 95.8391155 -41.25869751 101.36546326 C-41.28091565 112.18389836 -41.27613487 123.00215989 -41.26163431 133.82060175 C-41.25033592 142.61458783 -41.24881378 151.4085253 -41.25425339 160.20251656 C-41.25501955 161.45480013 -41.25578572 162.70708371 -41.2565751 163.99731528 C-41.25817375 166.54143064 -41.25979482 169.08554599 -41.26143806 171.62966133 C-41.27528533 194.79935862 -41.26093198 217.96896528 -41.23472507 241.13864173 C-41.21100103 262.27386988 -41.21311885 283.40894737 -41.23703003 304.54417419 C-41.26382481 328.3074884 -41.27431541 352.0707297 -41.25896871 375.83406311 C-41.25737599 378.36905132 -41.25580414 380.90403955 -41.25425339 383.43902779 C-41.25348201 384.68623633 -41.25271063 385.93344487 -41.25191588 387.21844761 C-41.24760221 395.99944707 -41.25487834 404.78039302 -41.26665115 413.5613842 C-41.28068779 424.26606558 -41.27685165 434.97056368 -41.25024743 445.67522412 C-41.2371247 451.13498316 -41.23193077 456.59443685 -41.24849319 462.0541935 C-41.26343754 467.05628904 -41.2551304 472.05779739 -41.22860543 477.05983997 C-41.22303946 478.86522503 -41.2258184 480.67066011 -41.23798437 482.47601276 C-41.3168006 495.14804551 -40.25712998 505.41409134 -31.46017456 515.32518005 C-23.98747374 522.87057252 -15.04031236 524.91014985 -4.82757315 525.04901507 C-2.26659808 525.05669145 0.29358773 525.03983266 2.85450745 525.02259827 C4.72399101 525.02836541 6.59346891 525.03631051 8.46293503 525.04623449 C13.57998326 525.06704963 18.69656345 525.05681679 23.81361306 525.0413034 C29.33997669 525.02997194 34.86626089 525.04746158 40.39260864 525.061203 C51.21104374 525.08342114 62.02930527 525.07864037 72.84774714 525.0641398 C81.64173321 525.05284141 90.43567069 525.05131927 99.22966194 525.05675888 C101.10808731 525.05790813 101.10808731 525.05790813 103.02446066 525.05908059 C105.56857603 525.06067925 108.11269138 525.06230031 110.65680671 525.06394355 C133.82650401 525.07779082 156.99611067 525.06343747 180.16578712 525.03723056 C201.30101526 525.01350652 222.43609276 525.01562435 243.57131958 525.03953552 C267.33463379 525.06633031 291.09787509 525.0768209 314.8612085 525.0614742 C317.39619671 525.05988149 319.93118493 525.05830963 322.46617317 525.05675888 C324.33698598 525.05560181 324.33698598 525.05560181 326.24559299 525.05442137 C335.02659246 525.05010771 343.80753841 525.05738383 352.58852959 525.06915665 C363.29321096 525.08319329 373.99770907 525.07935715 384.7023695 525.05275293 C390.16212855 525.03963019 395.62158224 525.03443626 401.08133888 525.05099869 C406.08343443 525.06594303 411.08494277 525.0576359 416.08698536 525.03111093 C417.89237041 525.02554495 419.6978055 525.02832389 421.50315814 525.04048987 C434.03524024 525.11843564 444.59465128 524.14528644 454.35232544 515.32518005 C463.8881328 504.77596995 464.14164719 493.25004759 464.05647278 479.82774353 C464.06295828 477.95739613 464.07161681 476.08705522 464.08224708 474.21672678 C464.10497649 469.10194609 464.0967072 463.98762249 464.08310783 458.87282681 C464.07383203 453.34715612 464.09335818 447.82157469 464.10908508 442.29592896 C464.13514488 431.48097969 464.13409222 420.66619682 464.1230469 409.85122812 C464.11448172 401.06012502 464.1153246 392.26907 464.12284279 383.47796631 C464.12389768 382.22581822 464.12495256 380.97367013 464.12603942 379.68357816 C464.12821039 377.13970433 464.13039716 374.59583052 464.13259957 372.05195671 C464.1465063 354.97871633 464.15117199 337.90549241 464.1363554 320.8322525 C464.13577663 320.16521162 464.13519786 319.49817073 464.13460156 318.81091649 C464.12983722 313.39465619 464.12477907 307.97839616 464.11970383 302.56213615 C464.10010955 281.43343916 464.10932022 260.30493328 464.14212036 239.17625427 C464.17892524 215.41769181 464.19590203 191.65922633 464.18270808 167.90062666 C464.18136701 165.36621572 464.18005803 162.83180477 464.17878151 160.2973938 C464.17815084 159.05048025 464.17752018 157.80356669 464.1768704 156.51886788 C464.17384473 147.74034775 464.18509644 138.96191278 464.20203209 130.18341064 C464.22236608 119.482392 464.22147321 108.78162816 464.19339969 98.08062279 C464.17963652 92.62283087 464.17542305 87.16548362 464.19734955 81.70770836 C464.21717255 76.7074189 464.20909161 71.70796485 464.17915521 66.70773286 C464.17316794 64.90304919 464.17720513 63.09829719 464.19251844 61.29366857 C464.29284028 48.53703248 462.61740978 38.87392191 453.78982544 28.95018005 C443.55999769 19.71447431 431.81986523 19.66376039 418.85488892 19.74603271 C416.98454151 19.73954721 415.11420061 19.73088868 413.24387217 19.72025841 C408.12909148 19.697529 403.01476788 19.70579829 397.8999722 19.71939766 C392.3743015 19.72867346 386.84872007 19.70914732 381.32307434 19.69342041 C370.50812508 19.66736061 359.69334221 19.66841327 348.8783735 19.6794586 C340.08727041 19.68802377 331.29621538 19.68718089 322.50511169 19.6796627 C321.25296361 19.67860782 320.00081552 19.67755293 318.71072355 19.67646607 C316.16684972 19.67429511 313.6229759 19.67210833 311.0791021 19.66990592 C294.00586172 19.6559992 276.9326378 19.6513335 259.85939789 19.66615009 C258.85883656 19.66701824 258.85883656 19.66701824 257.83806187 19.66790394 C252.42180158 19.67266827 247.00554155 19.67772642 241.58928154 19.68280166 C220.46058454 19.70239594 199.33207866 19.69318527 178.20339966 19.66038513 C154.44483719 19.62358026 130.68637172 19.60660346 106.92777205 19.61979741 C104.39336111 19.62113848 101.85895015 19.62244747 99.32453918 19.62372398 C98.07762563 19.62435465 96.83071208 19.62498531 95.54601327 19.62563509 C86.76749314 19.62866076 77.98905816 19.61740905 69.21055603 19.6004734 C58.50953739 19.58013941 47.80877354 19.58103228 37.10776818 19.6091058 C31.64997625 19.62286897 26.19262901 19.62708245 20.73485374 19.60515594 C15.73456428 19.58533294 10.73511024 19.59341388 5.73487824 19.62335028 C3.93019458 19.62933755 2.12544258 19.62530036 0.32081395 19.60998706 C-14.17487868 19.49598878 -26.31893348 22.1127522 -35.58517456 34.38768005 Z " fill="#282C34" transform="translate(328.5851745605469,267.61231994628906)"/>
<path d="M0 0 C6.6 0 13.2 0 20 0 C20.33 7.59 20.66 15.18 21 23 C23.26875 20.875625 25.5375 18.75125 27.875 16.5625 C29.27964086 15.27961164 30.6845295 13.99699442 32.08984375 12.71484375 C34.41008096 10.56866539 36.37892219 8.53272485 38.37890625 6.06640625 C41.48540709 2.38222593 43.84732003 0.28415832 48.76318359 -0.36474609 C55.85704245 -0.76156732 62.91743688 -0.4947814 70 0 C65.54626313 5.40208778 60.7706988 10.19657136 55.625 14.9375 C54.52091797 15.96327148 54.52091797 15.96327148 53.39453125 17.00976562 C51.59947613 18.67660252 49.8012894 20.33990658 48 22 C50.82115606 27.24506102 54.02069918 31.73243522 57.8125 36.3125 C71 52.50887676 71 52.50887676 71 55 C63.10220872 56.20209172 54.76262411 57.31422132 47 55 C40.5932637 50.24167135 36.62050031 42.982952 33 36 C28.15395802 37.89668865 24.12895316 39.6903098 21 44 C20.10938227 47.78642744 20.04792287 51.07032466 20 55 C13.4 55 6.8 55 0 55 C0 36.85 0 18.7 0 0 Z " fill="#2A2E35" transform="translate(409,558)"/>
<path d="M0 0 C6.6 0 13.2 0 20 0 C20 7.59 20 15.18 20 23 C25.52765902 18.16329835 30.97122999 13.29015101 36.33007812 8.27539062 C37.39258957 7.28721653 38.4642484 6.30876914 39.5456543 5.34130859 C41.16667452 3.88666439 41.16667452 3.88666439 43.125 1.65234375 C47.89790551 -1.09077993 52.92418373 -0.41375947 58.3125 -0.25 C59.99569336 -0.22292969 59.99569336 -0.22292969 61.71289062 -0.1953125 C64.47613447 -0.14827856 67.23762698 -0.08256317 70 0 C67.26178751 3.36974515 64.64621063 6.51391862 61.3125 9.3125 C57.99657028 12.14023357 54.73549843 15.01777158 51.5 17.9375 C50.6440625 18.70964844 49.788125 19.48179687 48.90625 20.27734375 C48.2771875 20.84582031 47.648125 21.41429687 47 22 C51.02190816 28.50914083 55.65012803 34.43624754 60.50878906 40.33032227 C64.33614748 45.0167685 67.71732346 49.91883578 71 55 C50.96453017 57.70683386 50.96453017 57.70683386 44.60351562 53.36376953 C39.62589135 48.33296551 36.14603637 42.29207275 33 36 C27.80785902 36.95675407 24.15639479 39.83240321 21 44 C20.02848289 47.82952513 20 51.00092077 20 55 C13.4 55 6.8 55 0 55 C0 36.85 0 18.7 0 0 Z " fill="#2A2E35" transform="translate(339,463)"/>
<path d="M0 0 C3.63128958 2.72346718 5.38052334 5.70938498 7.109375 9.83203125 C7.85242684 15.66264521 8.31454183 22.41335202 5.671875 27.83203125 C0.20630525 34.23074706 -6.4906613 38.09928068 -14.9440918 39.06713867 C-25.71217629 39.7495625 -36.2312157 39.44682732 -44.8828125 32.15234375 C-49.77170102 26.88918626 -51.3944803 21.2407844 -51.203125 14.13671875 C-50.4697156 8.72782442 -47.97847866 4.97168746 -44.265625 1.08203125 C-31.66323041 -8.07488107 -13.1746644 -8.13889392 0 0 Z " fill="#2C2F37" transform="translate(460.890625,480.16796875)"/>
<path d="M0 0 C1.30904297 -0.01740234 1.30904297 -0.01740234 2.64453125 -0.03515625 C10.95354982 0.00177272 19.40910826 1.28410826 25.5 7.375 C26.78605661 9.94711322 26.71043941 11.94406966 26.81640625 14.8203125 C26.85830078 15.89667969 26.90019531 16.97304688 26.94335938 18.08203125 C26.98267578 19.20996094 27.02199219 20.33789062 27.0625 21.5 C27.10568359 22.63566406 27.14886719 23.77132812 27.19335938 24.94140625 C27.2996604 27.75247768 27.40169405 30.56363945 27.5 33.375 C29.48 33.375 31.46 33.375 33.5 33.375 C33.5 36.675 33.5 39.975 33.5 43.375 C27.68940729 44.82764818 20.08440141 46.00614251 14.45703125 43.4453125 C13.1185507 42.44747353 11.80691933 41.41383331 10.5 40.375 C7.72584962 40.77527821 5.81539316 41.70413791 3.25 42.9375 C-3.75171015 45.59604408 -13.00113776 45.58248684 -20.20703125 43.6484375 C-23.20065211 42.28214672 -25.32224832 40.57497064 -27.5 38.125 C-29.38705979 32.93558558 -29.24700439 29.06387948 -27.0625 24.125 C-23.02094608 19.78772262 -18.43760913 17.68951197 -12.51733398 17.05566406 C-9.31483677 16.9831003 -6.13912123 17.0246478 -2.9375 17.125 C-1.83341797 17.14304687 -0.72933594 17.16109375 0.40820312 17.1796875 C3.10639981 17.22640952 5.80272035 17.2918986 8.5 17.375 C7.38145414 13.64885847 7.38145414 13.64885847 4.5 11.375 C2.85857459 11.22859499 1.2101859 11.15403411 -0.4375 11.125 C-1.31277344 11.09921875 -2.18804688 11.0734375 -3.08984375 11.046875 C-5.56258277 11.12146626 -5.56258277 11.12146626 -6.87255859 12.87719727 C-8.99575124 14.83126071 -10.10267452 14.72528172 -12.94921875 14.66796875 C-13.79677734 14.65830078 -14.64433594 14.64863281 -15.51757812 14.63867188 C-16.83918945 14.6009668 -16.83918945 14.6009668 -18.1875 14.5625 C-19.08017578 14.54896484 -19.97285156 14.53542969 -20.89257812 14.52148438 C-23.09566166 14.48614079 -25.29752582 14.43680493 -27.5 14.375 C-26.8046875 8.7109375 -26.8046875 8.7109375 -24.0625 5.6875 C-17.08831613 0.51290557 -8.39288156 -0.1115745 0 0 Z " fill="#2C3037" transform="translate(603.5,569.625)"/>
<path d="M0 0 C3.61427261 2.71070446 5.66877448 5.59026305 7.109375 9.83203125 C7.109375 13.13203125 7.109375 16.43203125 7.109375 19.83203125 C-6.090625 19.83203125 -19.290625 19.83203125 -32.890625 19.83203125 C-31.61597223 25.55996368 -31.61597223 25.55996368 -29.07421875 27.1875 C-23.95935737 28.69725336 -18.68575061 28.63800601 -13.828125 26.45703125 C-11.7935635 24.96950626 -11.7935635 24.96950626 -10.890625 22.83203125 C-4.950625 22.83203125 0.989375 22.83203125 7.109375 22.83203125 C6.0635542 29.10695608 5.73368433 30.02982135 1.109375 33.83203125 C-9.19511588 40.01472578 -22.67885254 40.50868085 -34.2578125 38.14453125 C-40.64033924 36.02291571 -46.47928939 32.92006617 -49.98046875 26.984375 C-52.38318555 21.4149439 -53.05326391 15.48416251 -51.19921875 9.66015625 C-48.2014176 2.98722649 -43.71820643 -0.58955624 -37.140625 -3.48046875 C-25.1656414 -7.48848922 -10.79850305 -6.67097606 0 0 Z " fill="#2B2F36" transform="translate(631.890625,480.16796875)"/>
<path d="M0 0 C1.24064209 0.00918457 1.24064209 0.00918457 2.50634766 0.01855469 C10.47356615 0.22136229 16.71880241 2.11040357 23.5625 6.1875 C29.36807325 12.52085263 29.625 16.52257023 29.625 25.4375 C16.095 25.4375 2.565 25.4375 -11.375 25.4375 C-9.10755287 31.12648856 -9.10755287 31.12648856 -6.5 32.796875 C-4.03338618 33.54048652 -1.95104873 33.70320761 0.625 33.6875 C1.8934375 33.69523438 1.8934375 33.69523438 3.1875 33.703125 C5.82011294 33.41623769 7.42784621 32.90880834 9.625 31.4375 C10.12 29.9525 10.12 29.9525 10.625 28.4375 C16.895 28.4375 23.165 28.4375 29.625 28.4375 C28.54983214 34.88850719 28.2254076 35.50029448 23.5859375 39.1171875 C13.66464452 45.79726126 0.15122563 45.65553223 -11.35546875 44.01171875 C-18.80560838 42.12897029 -23.84366393 37.83898284 -28.375 31.75 C-30.11994289 25.96987669 -30.66282202 19.78913936 -28.4609375 14.05859375 C-24.47575998 7.28379196 -19.25028988 3.4219319 -11.84960938 1.05932617 C-7.88692693 0.06357319 -4.06994216 -0.05165536 0 0 Z " fill="#2B2F36" transform="translate(541.375,569.5625)"/>
<path d="M0 0 C4.28472296 2.72707893 6.77209884 5.71867247 8.5625 10.5 C9.16246834 15.85232012 9.03660296 21.12502446 8.875 26.5 C8.84987943 27.95699288 8.8270729 29.41402759 8.80664062 30.87109375 C8.75623022 34.4159536 8.6583704 37.95492581 8.5625 41.5 C2.2925 41.5 -3.9775 41.5 -10.4375 41.5 C-10.48648438 39.57414063 -10.53546875 37.64828125 -10.5859375 35.6640625 C-10.6609535 33.15102655 -10.73650182 30.63800644 -10.8125 28.125 C-10.8434375 26.85398437 -10.874375 25.58296875 -10.90625 24.2734375 C-10.96425781 22.45585937 -10.96425781 22.45585937 -11.0234375 20.6015625 C-11.0548584 19.48088379 -11.0862793 18.36020508 -11.11865234 17.20556641 C-11.17161203 14.35289588 -11.17161203 14.35289588 -13.4375 12.5 C-18.90565165 11.75713987 -18.90565165 11.75713987 -23.52880859 14.16259766 C-25.90827199 17.07651203 -25.97083813 18.6335685 -26.046875 22.359375 C-26.07910156 23.47441406 -26.11132812 24.58945312 -26.14453125 25.73828125 C-26.16580078 27.47658203 -26.16580078 27.47658203 -26.1875 29.25 C-26.23197266 31.01150391 -26.23197266 31.01150391 -26.27734375 32.80859375 C-26.34799657 35.7053595 -26.39501736 38.6026842 -26.4375 41.5 C-32.7075 41.5 -38.9775 41.5 -45.4375 41.5 C-45.4375 27.64 -45.4375 13.78 -45.4375 -0.5 C-40.1575 -0.5 -34.8775 -0.5 -29.4375 -0.5 C-29.4375 1.81 -29.4375 4.12 -29.4375 6.5 C-28.91800781 6.09007812 -28.39851562 5.68015625 -27.86328125 5.2578125 C-27.16589844 4.71898437 -26.46851563 4.18015625 -25.75 3.625 C-25.06550781 3.09132813 -24.38101563 2.55765625 -23.67578125 2.0078125 C-16.77489605 -2.64095135 -7.68085377 -3.30013869 0 0 Z " fill="#2E3238" transform="translate(691.4375,476.5)"/>
<path d="M0 0 C4.28472296 2.72707893 6.77209884 5.71867247 8.5625 10.5 C9.16246834 15.85232012 9.03660296 21.12502446 8.875 26.5 C8.84987943 27.95699288 8.8270729 29.41402759 8.80664062 30.87109375 C8.75623022 34.4159536 8.6583704 37.95492581 8.5625 41.5 C2.2925 41.5 -3.9775 41.5 -10.4375 41.5 C-10.48648438 39.57414063 -10.53546875 37.64828125 -10.5859375 35.6640625 C-10.6609535 33.15102655 -10.73650182 30.63800644 -10.8125 28.125 C-10.8434375 26.85398437 -10.874375 25.58296875 -10.90625 24.2734375 C-10.96425781 22.45585937 -10.96425781 22.45585937 -11.0234375 20.6015625 C-11.0548584 19.48088379 -11.0862793 18.36020508 -11.11865234 17.20556641 C-11.17161203 14.35289588 -11.17161203 14.35289588 -13.4375 12.5 C-18.90565165 11.75713987 -18.90565165 11.75713987 -23.52880859 14.16259766 C-25.90827199 17.07651203 -25.97083813 18.6335685 -26.046875 22.359375 C-26.07910156 23.47441406 -26.11132812 24.58945312 -26.14453125 25.73828125 C-26.16580078 27.47658203 -26.16580078 27.47658203 -26.1875 29.25 C-26.23197266 31.01150391 -26.23197266 31.01150391 -26.27734375 32.80859375 C-26.34799657 35.7053595 -26.39501736 38.6026842 -26.4375 41.5 C-32.7075 41.5 -38.9775 41.5 -45.4375 41.5 C-45.4375 27.64 -45.4375 13.78 -45.4375 -0.5 C-40.1575 -0.5 -34.8775 -0.5 -29.4375 -0.5 C-29.4375 1.81 -29.4375 4.12 -29.4375 6.5 C-28.91800781 6.09007812 -28.39851563 5.68015625 -27.86328125 5.2578125 C-27.16589844 4.71898437 -26.46851563 4.18015625 -25.75 3.625 C-25.06550781 3.09132813 -24.38101562 2.55765625 -23.67578125 2.0078125 C-16.77489605 -2.64095135 -7.68085377 -3.30013869 0 0 Z " fill="#2E3238" transform="translate(521.4375,476.5)"/>
<path d="M0 0 C4.62 0 9.24 0 14 0 C14 4.29 14 8.58 14 13 C17.96 13 21.92 13 26 13 C26 16.63 26 20.26 26 24 C22.04 24 18.08 24 14 24 C14.08691739 26.77236494 14.19377361 29.54147078 14.3125 32.3125 C14.33505859 33.09818359 14.35761719 33.88386719 14.38085938 34.69335938 C14.4340332 35.8293457 14.4340332 35.8293457 14.48828125 36.98828125 C14.51446533 37.68477783 14.54064941 38.38127441 14.56762695 39.09887695 C15.12101345 41.53209021 16.07543353 42.45469326 18 44 C20.04100238 44.57017808 20.04100238 44.57017808 22.1875 44.6875 C23.445625 44.790625 24.70375 44.89375 26 45 C26 48.3 26 51.6 26 55 C18.32073783 56.42869994 9.79700462 57.37477753 2.375 54.6875 C-1.02942854 52.26856393 -2.6632819 51.01015429 -4 47 C-4.08209792 45.22686149 -4.10746294 43.45079225 -4.09765625 41.67578125 C-4.09282227 40.13374023 -4.09282227 40.13374023 -4.08789062 38.56054688 C-4.07951172 37.48869141 -4.07113281 36.41683594 -4.0625 35.3125 C-4.05798828 34.22904297 -4.05347656 33.14558594 -4.04882812 32.02929688 C-4.03703743 29.35280915 -4.02058063 26.67643223 -4 24 C-6.64 24 -9.28 24 -12 24 C-12 20.37 -12 16.74 -12 13 C-9.03 13 -6.06 13 -3 13 C-2.86722656 12.22914063 -2.73445312 11.45828125 -2.59765625 10.6640625 C-2.42105469 9.66117187 -2.24445312 8.65828125 -2.0625 7.625 C-1.80146484 6.12839844 -1.80146484 6.12839844 -1.53515625 4.6015625 C-1 2 -1 2 0 0 Z " fill="#292D34" transform="translate(718,463)"/>
<path d="M0 0 C4.62 0 9.24 0 14 0 C14 4.29 14 8.58 14 13 C17.96 13 21.92 13 26 13 C26 16.63 26 20.26 26 24 C22.04 24 18.08 24 14 24 C14.08691739 26.77236494 14.19377361 29.54147078 14.3125 32.3125 C14.33505859 33.09818359 14.35761719 33.88386719 14.38085938 34.69335938 C14.4340332 35.8293457 14.4340332 35.8293457 14.48828125 36.98828125 C14.51446533 37.68477783 14.54064941 38.38127441 14.56762695 39.09887695 C15.12101345 41.53209021 16.07543353 42.45469326 18 44 C20.04100238 44.57017808 20.04100238 44.57017808 22.1875 44.6875 C23.445625 44.790625 24.70375 44.89375 26 45 C26 48.3 26 51.6 26 55 C18.32073783 56.42869994 9.79700462 57.37477753 2.375 54.6875 C-1.02942854 52.26856393 -2.6632819 51.01015429 -4 47 C-4.08209792 45.22686149 -4.10746294 43.45079225 -4.09765625 41.67578125 C-4.09282227 40.13374023 -4.09282227 40.13374023 -4.08789062 38.56054688 C-4.07951172 37.48869141 -4.07113281 36.41683594 -4.0625 35.3125 C-4.05798828 34.22904297 -4.05347656 33.14558594 -4.04882812 32.02929688 C-4.03703743 29.35280915 -4.02058063 26.67643223 -4 24 C-6.64 24 -9.28 24 -12 24 C-12 20.37 -12 16.74 -12 13 C-9.03 13 -6.06 13 -3 13 C-2.86722656 12.22914063 -2.73445312 11.45828125 -2.59765625 10.6640625 C-2.42105469 9.66117187 -2.24445312 8.65828125 -2.0625 7.625 C-1.80146484 6.12839844 -1.80146484 6.12839844 -1.53515625 4.6015625 C-1 2 -1 2 0 0 Z " fill="#292D34" transform="translate(548,463)"/>
<path d="M0 0 C5.94 0 11.88 0 18 0 C18 19.14 18 38.28 18 58 C12.06 58 6.12 58 0 58 C0 38.86 0 19.72 0 0 Z " fill="#282C34" transform="translate(487,555)"/>
<path d="M0 0 C1 1 1 1 1.09765625 3.94140625 C1.08605469 5.13636719 1.07445312 6.33132813 1.0625 7.5625 C1.05347656 8.76003906 1.04445313 9.95757813 1.03515625 11.19140625 C1.02355469 12.11824219 1.01195312 13.04507813 1 14 C0.16855469 14.06058594 -0.66289063 14.12117187 -1.51953125 14.18359375 C-2.60621094 14.26738281 -3.69289063 14.35117187 -4.8125 14.4375 C-5.89144531 14.51871094 -6.97039063 14.59992187 -8.08203125 14.68359375 C-11.05989905 14.90212461 -11.05989905 14.90212461 -14 16 C-15.01587978 19.04763934 -15.19804406 21.34718967 -15.31640625 24.54296875 C-15.35830078 25.61611328 -15.40019531 26.68925781 -15.44335938 27.79492188 C-15.48267578 28.91447266 -15.52199219 30.03402344 -15.5625 31.1875 C-15.60568359 32.31865234 -15.64886719 33.44980469 -15.69335938 34.61523438 C-15.7994901 37.41001025 -15.90025397 40.20498898 -16 43 C-21.94 43 -27.88 43 -34 43 C-34 29.14 -34 15.28 -34 1 C-29.05 1 -24.1 1 -19 1 C-19 3.31 -19 5.62 -19 8 C-18.34 8 -17.68 8 -17 8 C-16.79375 7.4225 -16.5875 6.845 -16.375 6.25 C-12.52178076 -0.05526785 -6.79790983 -0.87299474 0 0 Z " fill="#292D35" transform="translate(677,570)"/>
<path d="M0 0 C5.5 3 5.5 3 7 6 C7.64507919 11.20671061 7.9173523 14.81709835 4.625 19.0625 C0.49230638 22.11282148 -2.90956531 22.7313843 -8 22 C-10.8100346 20.20636089 -12.50940468 18.98119065 -14 16 C-15.14642125 6.98825826 -15.14642125 6.98825826 -12.94140625 3.1640625 C-9.12130911 -0.41792561 -4.9264778 -1.08715514 0 0 Z " fill="#ECE6C9" transform="translate(443,486)"/>
<path d="M0 0 C0 1.65 0 3.3 0 5 C-5.67244577 8.30033208 -10.3628103 10.18422887 -17 9 C-17.66 8.34 -18.32 7.68 -19 7 C-18.8125 5 -18.8125 5 -18 3 C-12.39004157 -0.73997229 -6.52699931 -0.11406407 0 0 Z " fill="#E6E1C5" transform="translate(612,595)"/>
<path d="M0 0 C3.125 1.8125 3.125 1.8125 5 4 C5 4.99 5 5.98 5 7 C-1.93 7 -8.86 7 -16 7 C-15 3 -15 3 -13.0625 1.25 C-8.67401664 -0.5412177 -4.6759021 -0.70521802 0 0 Z " fill="#EAE4C8" transform="translate(615,485)"/>
<path d="M0 0 C2.5625 1.75 2.5625 1.75 3.5625 5.75 C-3.6975 5.75 -10.9575 5.75 -18.4375 5.75 C-13.79923892 -1.98043513 -8.38792863 -3.05015587 0 0 Z " fill="#EBE5C8" transform="translate(548.4375,581.25)"/>
</svg>
